<svg viewBox="0 0 1710 750" fill="currentColor"
  xmlns="http://www.w3.org/2000/svg">
  <path
    d="M185 198C187 203 193 206 198 204L283 174C288 172 291 166 289 161C287 156 281 153 276 155L201 182L174 106C172 101 166 98 161 100C156 102 153 108 155 113L185 198ZM810 195L817 188C704 68 561 39 439 54C378 62 322 80 278 104C234 129 201 159 185 190L195 195L204 199C216 173 246 145 288 122C330 99 383 81 442 74C558 59 695 88 802 201L810 195Z"
  />
  <path
    d="M450 283C452 288 457 291 463 289L548 261C553 259 556 253 554 248C553 243 547 240 542 242L466 267L441 191C439 186 433 183 428 185C423 186 420 192 422 197L450 283ZM780 235L787 228C731 169 683 139 640 131C598 122 563 134 535 154C481 194 455 267 451 275L460 280L468 284C474 272 498 206 547 170C571 153 600 143 636 150C673 158 718 184 772 241L780 235Z"
  />
  <path
    d="M1240 100C1240 105 1244 110 1250 110L1340 110C1345 110 1350 105 1350 100C1350 94 1345 90 1340 90L1260 90V1C1260 04 1255 0 1250 0C1244 0 1240 04 1240 10V100ZM1565 245H1575C1575 166 1529 91 1464 55C1432 36 1395 27 1356 32C1318 37 1279 56 1242 92L1250 100L1257 107C1290 73 1325 56 1359 52C1393 48 1426 55 1455 72C1513 105 1555 173 1555 245H1565Z"
  />
  <path
    d="M1547 562C1543 559 1536 559 1532 562L1469 626C1465 630 1465 636 1469 640C1473 644 1479 644 1483 640L1540 584L1596 640C1600 644 1606 644 1610 640C1614 636 1614 630 1610 626L1547 562ZM860 515L850 518C870 579 924 630 993 668C1061 706 1145 731 1226 741C1308 751 1388 745 1448 718C1478 705 1504 686 1521 661C1539 636 1550 606 1550 570H1540H1530C1530 602 1521 628 1505 650C1490 671 1467 688 1440 700C1384 725 1308 731 1229 721C1150 712 1068 687 1002 650C936 613 887 565 869 511L860 515Z"
  />
  <path
    d="M1215 411C1210 408 1204 409 1201 414L1153 490C1150 495 1151 501 1156 504C1160 507 1166 505 1169 501L1213 433L1280 476C1285 479 1291 478 1294 473C1297 469 1295 463 1291 460L1215 411ZM930 515L921 520C963 590 1050 631 1122 621C1158 616 1190 598 1209 564C1228 530 1233 481 1219 417L1210 420L1200 422C1213 483 1207 526 1191 554C1176 582 1150 597 1119 601C1056 610 976 574 938 509L930 515Z"
  />
  <path
    d="M419 598C418 592 413 589 408 590L319 606C314 607 310 612 311 618C312 623 317 627 323 626L401 611L416 690C417 695 422 699 428 698C433 697 437 692 436 686L419 598ZM110 520L100 518C95 550 107 581 128 607C149 633 179 654 213 666C280 691 365 682 418 605L410 600L401 594C354 662 281 670 220 648C189 636 162 617 144 595C125 572 116 546 119 521L110 520Z"
  />
  <path d="M1462 520V258H1518V366H1630V258H1685V520H1630V411H1518V520H1462Z" />
  <path
    d="M1102 390V128H1206C1225 128 1242 131 1256 139C1270 147 1281 157 1288 170C1296 184 1299 199 1299 216C1299 234 1296 249 1288 262C1281 276 1270 286 1256 293C1241 301 1224 305 1204 305H1138V260H1195C1206 260 1215 258 1222 255C1229 251 1234 246 1237 239C1241 233 1242 225 1242 216C1242 208 1241 200 1237 194C1234 187 1229 182 1222 178C1215 175 1206 173 1195 173H1158V390H1102Z"
  />
  <path
    d="M787 480H728L818 218H890L980 480H921L855 278H853L787 480ZM784 377H924V420H784V377Z"
  />
  <path
    d="M382 570V308H486C505 308 522 311 536 318C550 325 561 335 568 348C576 361 579 376 579 393C579 411 576 426 568 438C561 451 550 460 536 467C521 473 504 477 484 477H415V432H475C486 432 495 431 502 428C509 425 514 421 517 415C521 409 522 402 522 393C522 385 521 377 517 371C514 365 508 361 501 358C494 355 486 353 475 353H438V570H382ZM524 450L589 570H528L464 450H524Z"
  />
  <path
    d="M196 302C194 296 192 291 188 286C185 281 181 277 176 274C172 270 167 268 161 266C155 264 148 263 141 263C128 263 116 266 106 273C96 280 88 289 82 302C77 315 74 330 74 348C74 367 77 382 82 395C88 408 95 417 106 424C116 431 128 434 142 434C154 434 165 432 174 427C183 423 189 417 194 408C199 400 201 391 201 379L212 381H145V339H255V372C255 395 250 415 240 432C230 448 217 461 200 470C183 479 163 483 141 483C117 483 95 478 77 467C58 456 44 440 33 420C23 400 18 376 18 349C18 328 21 309 27 292C33 275 42 261 53 250C64 238 77 229 92 223C107 217 123 214 140 214C155 214 169 216 182 221C194 225 206 231 216 239C226 247 234 256 240 267C246 278 250 289 252 302H196Z"
  />
</svg>
